<?xml version="1.0" encoding="UTF-8" standalone="no"?>
<svg
   xmlns:dc="http://purl.org/dc/elements/1.1/"
   xmlns:cc="http://creativecommons.org/ns#"
   xmlns:rdf="http://www.w3.org/1999/02/22-rdf-syntax-ns#"
   xmlns:svg="http://www.w3.org/2000/svg"
   xmlns="http://www.w3.org/2000/svg"
   id="svg85"
   preserveAspectRatio="xMidYMid meet"
   viewBox="0 0 2400.000000 2400.000000"
   version="1.0">
  <metadata
     id="metadata91">
    <rdf:RDF>
      <cc:Work
         rdf:about="">
        <dc:format>image/svg+xml</dc:format>
        <dc:type
           rdf:resource="http://purl.org/dc/dcmitype/StillImage" />
        <dc:title></dc:title>
      </cc:Work>
    </rdf:RDF>
  </metadata>
  <defs
     id="defs89" />
  <path
     d="m 1191.3887,304.29297 c -5.5391,-0.0109 -10.1387,0.0816 -12.8887,0.30664 C 1101.7,310.69961 1030.8,339.3 968,389.5 955.1,399.9 931.40078,423.7 919.80078,438 876.60078,491.6 849.7,552.20039 840,618.40039 c -12.9,87.3 6.89961,175.79883 55.59961,249.79883 18.4,27.8 36.90039,48.50156 73.90039,82.10156 12.1,11 22.7,20.59844 23.5,21.39844 1.3,1.1 -15.7,18.50078 -123.5,126.30078 l -125,125 h 149.80078 c 82.3,0 149.69922,0.2 149.69922,0.5 0,0.3 -1.6,6.1008 -3.5,12.8008 -1.9,6.7 -5.3,21.1992 -7.5,32.1992 -29.6,145.5 -75.2,288.7 -128,401.5 -40.7,87.2 -92.39961,161.5992 -144.59961,208.1992 -47.9,42.7 -96.39961,71.3012 -175.09961,103.2012 -112.9,45.8 -170.5,76.8004 -189,101.9004 -9.3,12.7 -16.40117,30.4984 -24.20117,60.8984 -7,27.3 -16.09961,75.9 -16.09961,86.5 V 2234 h 844 844 v -3 c 0,-11.9 -9.8996,-65.6 -18.0996,-98.5 -9,-35.6 -12.6012,-43.1996 -27.2012,-57.0996 -25.8,-24.6 -75.5992,-50.3996 -174.1992,-90.0996 -60.5,-24.4 -92.7,-40.4 -127.5,-63 -59.1,-38.6 -107.8008,-90.6004 -149.3008,-159.4004 -16.9,-28.1 -51.8,-95.5 -67.5,-130.5 -45.9,-102.3 -86.5988,-232.6004 -112.7988,-361.9004 -3.3,-16.3 -7.4004,-41.4996 -7.4004,-45.5996 0,-1.9 2.0992,-1.9004 147.6992,-1.9004 H 1655.5 l -125,-125 C 1422.7,990.2 1405.7,972.79922 1407,971.69922 c 0.8,-0.8 11.4,-10.39844 23.5,-21.39844 41.7,-37.9 62.1,-61.60039 82.5,-95.90039 27.1,-45.5 42.9992,-93.40039 49.1992,-147.90039 1.6,-14.5 1.6004,-56.9 -0.1,-71.5 -6.5,-58.3 -24.0988,-109.7 -53.7988,-157.5 -36.8,-59.1 -86.1016,-103.5 -150.6016,-135.5 -37.6,-18.7 -75.5992,-30.4 -115.6992,-35.5 -8.925,-1.2 -33.9941,-2.17422 -50.6113,-2.20703 z"
     style="fill:#000000;stroke:none;stroke-width:0.1"
     id="path81" />
</svg>
