<?xml version="1.0" standalone="no"?>
<!DOCTYPE svg PUBLIC "-//W3C//DTD SVG 20010904//EN"
 "http://www.w3.org/TR/2001/REC-SVG-20010904/DTD/svg10.dtd">
<svg version="1.0" xmlns="http://www.w3.org/2000/svg"
 viewBox="0 0 2400.000000 2400.000000"
 preserveAspectRatio="xMidYMid meet">

<g transform="translate(0.000000,2400.000000) scale(0.100000,-0.100000)"
fill="#000000" stroke="none">
<path d="M11785 20954 c-768 -61 -1477 -347 -2105 -849 -129 -104 -366 -342
-482 -485 -432 -536 -701 -1142 -798 -1804 -129 -873 69 -1758 556 -2498 184
-278 369 -485 739 -821 121 -110 227 -206 235 -214 13 -11 -157 -185 -1235
-1263 l-1250 -1250 1498 0 c823 0 1497 -2 1497 -5 0 -3 -16 -61 -35 -128 -19
-67 -53 -212 -75 -322 -296 -1455 -752 -2887 -1280 -4015 -407 -872 -924
-1616 -1446 -2082 -479 -427 -964 -713 -1751 -1032 -1129 -458 -1705 -768
-1890 -1019 -93 -127 -164 -305 -242 -609 -70 -273 -161 -759 -161 -865 l0
-33 8440 0 8440 0 0 30 c0 119 -99 656 -181 985 -90 356 -126 432 -272 571
-258 246 -756 504 -1742 901 -605 244 -927 404 -1275 630 -591 386 -1078 906
-1493 1594 -169 281 -518 955 -675 1305 -459 1023 -866 2326 -1128 3619 -33
163 -74 415 -74 456 0 19 21 19 1477 19 l1478 0 -1250 1250 c-1078 1078 -1248
1252 -1235 1263 8 8 114 104 235 214 417 379 621 616 825 959 271 455 430 934
492 1479 16 145 16 569 -1 715 -65 583 -241 1097 -538 1575 -368 591 -861
1035 -1506 1355 -376 187 -756 304 -1157 355 -119 16 -525 28 -635 19z"/>
</g>
</svg>
